<?xml version="1.0" encoding="UTF-8"?>
<svg id="a" data-name="Layer 1" xmlns="http://www.w3.org/2000/svg" viewBox="0 0 580 580">
  <defs>
    <style>
      .b {
        fill: #72c1e3;
        stroke-width: 0px;
      }
    </style>
  </defs>
  <path class="b" d="m377.83,275.84h-2.06c-14.88,0-23.39-16.98-14.47-28.9l91.05-121.67c8.92-11.92.41-28.9-14.47-28.9h-77.45c-26.04,0-50.55,12.27-66.15,33.12L50.9,454.73c-8.92,11.92-.41,28.9,14.47,28.9h77.45c26.04,0,50.55-12.27,66.15-33.12l96.93-129.54c3.41-4.56,8.77-7.24,14.47-7.24h39.39c9.98,0,18.07,8.09,18.07,18.07v69.21c0,45.63,36.99,82.62,82.62,82.62h54.22c9.98,0,18.07-8.09,18.07-18.07v-171.64c0-9.98-8.09-18.07-18.07-18.07h-136.83Z"/>
</svg>