<svg width="875" height="312" viewBox="0 0 875 312" fill="none" xmlns="http://www.w3.org/2000/svg">
<g clip-path="url(#clip0_1469_283071)">
<path d="M117.41 1.16998L0 307.73H47.39L75.6 231.73H207.84L235.67 307.73H285.62L169.07 1.16998H117.41ZM89.71 193.73L142.17 52.41L193.93 193.73H89.71Z" fill="#131B3B"/>
<path d="M364.62 129.26V81.44H324.49V307.73H367.61V192.02C367.61 175.23 371.24 161.64 378.5 151.25C385.76 140.86 395.72 133.39 408.39 128.84C421.05 124.29 435.5 122.43 451.72 123.29V78.46C433.21 78.46 416.07 83.02 400.27 92.12C384.47 101.23 372.59 113.62 364.62 129.26Z" fill="#131B3B"/>
<path d="M535.26 81.44H492.14V307.73H535.26V81.44Z" fill="#131B3B"/>
<path d="M513.49 0.320007C504.1 0.320007 496.48 2.95001 490.65 8.22001C484.81 13.49 481.9 20.39 481.9 28.93C481.9 36.9 484.82 43.66 490.65 49.21C496.48 54.76 504.1 57.54 513.49 57.54C522.88 57.54 530.07 54.76 535.9 49.21C541.73 43.66 544.65 36.9 544.65 28.93C544.65 20.39 541.73 13.49 535.9 8.22001C530.06 2.96001 522.59 0.320007 513.49 0.320007Z" fill="#131B3B"/>
<path d="M761.04 113.68C751.5 102.15 739.97 93.19 726.46 86.78C712.94 80.37 697.64 77.17 680.56 77.17C659.78 77.17 641.28 82.23 625.06 92.33C608.84 102.44 596.03 116.17 586.63 133.53C577.24 150.89 572.54 170.82 572.54 193.3C572.54 216.93 577.09 237.7 586.2 255.64C595.31 273.57 608.04 287.45 624.41 297.27C640.78 307.09 659.92 312 681.84 312C708.59 312 731.15 304.82 749.51 290.44C767.87 276.07 779.75 256.36 785.16 231.31H742.47C739.05 246.11 732.01 257.64 721.34 265.89C710.67 274.15 697.22 278.27 680.99 278.27C667.33 278.27 655.65 274.85 645.98 268.02C636.3 261.19 628.9 251.44 623.78 238.77C619.85 229.07 617.45 217.89 616.53 205.25H785.17C787.16 186.75 786.03 169.75 781.75 154.23C777.48 138.72 770.58 125.2 761.04 113.67V113.68ZM616.98 176.65C618.15 166.02 620.46 156.53 623.98 148.26C629.24 135.88 636.64 126.34 646.18 119.65C655.71 112.96 666.89 109.62 679.7 109.62C697.34 109.62 711.51 115.53 722.18 127.34C732.85 139.15 738.62 155.59 739.47 176.65H616.97H616.98Z" fill="#131B3B"/>
<path d="M874.39 1.16998H830.84V307.72H874.39V1.16998Z" fill="#131B3B"/>
</g>
<defs>
<clipPath id="clip0_1469_283071">
<rect width="874.39" height="311.68" fill="white" transform="translate(0 0.320007)"/>
</clipPath>
</defs>
</svg>
